<svg width="400" height="100" xmlns="http://www.w3.org/2000/svg">
  <style>
    /* Teias estáticas */
    .web-thread {
      stroke:rgba(202, 198, 198, 0.13);
      stroke-width: 1.5;
      fill: none;
      stroke-linecap: round;
    }
    
    /* Cada aranha com timing diferente */
    .spider1 { animation: spider-climb1 8s infinite ease-in-out; }
    .spider2 { animation: spider-climb2 12s infinite ease-in-out; }
    .spider3 { animation: spider-climb3 6s infinite ease-in-out; }
    .spider4 { animation: spider-climb4 10s infinite ease-in-out; }
    .spider5 { animation: spider-climb5 7s infinite ease-in-out; }
    .spider6 { animation: spider-climb6 9s infinite ease-in-out; }
    .spider7 { animation: spider-climb7 11s infinite ease-in-out; }
    .spider8 { animation: spider-climb8 5s infinite ease-in-out; }
    .spider9 { animation: spider-climb9 13s infinite ease-in-out; }
    .spider10 { animation: spider-climb10 8.5s infinite ease-in-out; }
    .spider11 { animation: spider-climb11 6.5s infinite ease-in-out; }
    .spider12 { animation: spider-climb12 9.5s infinite ease-in-out; }
    .spider13 { animation: spider-climb13 7.5s infinite ease-in-out; }
    
    /* Animações de subida para cada aranha */
    @keyframes spider-climb1 {
      0% { transform: translate(20px, 85px) rotate(0deg); opacity: 1; }
      50% { transform: translate(20px, 15px) rotate(0deg); opacity: 1; }
      51% { opacity: 0; }
      99% { opacity: 0; }
      100% { transform: translate(20px, 85px) rotate(0deg); opacity: 1; }
    }
    
    @keyframes spider-climb2 {
      0% { transform: translate(50px, 85px) rotate(0deg); opacity: 1; }
      60% { transform: translate(50px, 15px) rotate(0deg); opacity: 1; }
      61% { opacity: 0; }
      99% { opacity: 0; }
      100% { transform: translate(50px, 85px) rotate(0deg); opacity: 1; }
    }
    
    @keyframes spider-climb3 {
      0% { transform: translate(80px, 85px) rotate(0deg); opacity: 1; }
      45% { transform: translate(80px, 15px) rotate(0deg); opacity: 1; }
      46% { opacity: 0; }
      99% { opacity: 0; }
      100% { transform: translate(80px, 85px) rotate(0deg); opacity: 1; }
    }
    
    @keyframes spider-climb4 {
      0% { transform: translate(110px, 85px) rotate(0deg); opacity: 1; }
      55% { transform: translate(110px, 15px) rotate(0deg); opacity: 1; }
      56% { opacity: 0; }
      99% { opacity: 0; }
      100% { transform: translate(110px, 85px) rotate(0deg); opacity: 1; }
    }
    
    @keyframes spider-climb5 {
      0% { transform: translate(140px, 85px) rotate(0deg); opacity: 1; }
      48% { transform: translate(140px, 15px) rotate(0deg); opacity: 1; }
      49% { opacity: 0; }
      99% { opacity: 0; }
      100% { transform: translate(140px, 85px) rotate(0deg); opacity: 1; }
    }
    
    @keyframes spider-climb6 {
      0% { transform: translate(170px, 85px) rotate(0deg); opacity: 1; }
      52% { transform: translate(170px, 15px) rotate(0deg); opacity: 1; }
      53% { opacity: 0; }
      99% { opacity: 0; }
      100% { transform: translate(170px, 85px) rotate(0deg); opacity: 1; }
    }
    
    @keyframes spider-climb7 {
      0% { transform: translate(200px, 85px) rotate(0deg); opacity: 1; }
      58% { transform: translate(200px, 15px) rotate(0deg); opacity: 1; }
      59% { opacity: 0; }
      99% { opacity: 0; }
      100% { transform: translate(200px, 85px) rotate(0deg); opacity: 1; }
    }
    
    @keyframes spider-climb8 {
      0% { transform: translate(230px, 85px) rotate(0deg); opacity: 1; }
      42% { transform: translate(230px, 15px) rotate(0deg); opacity: 1; }
      43% { opacity: 0; }
      99% { opacity: 0; }
      100% { transform: translate(230px, 85px) rotate(0deg); opacity: 1; }
    }
    
    @keyframes spider-climb9 {
      0% { transform: translate(260px, 85px) rotate(0deg); opacity: 1; }
      62% { transform: translate(260px, 15px) rotate(0deg); opacity: 1; }
      63% { opacity: 0; }
      99% { opacity: 0; }
      100% { transform: translate(260px, 85px) rotate(0deg); opacity: 1; }
    }
    
    @keyframes spider-climb10 {
      0% { transform: translate(290px, 85px) rotate(0deg); opacity: 1; }
      50% { transform: translate(290px, 15px) rotate(0deg); opacity: 1; }
      51% { opacity: 0; }
      99% { opacity: 0; }
      100% { transform: translate(290px, 85px) rotate(0deg); opacity: 1; }
    }
    
    @keyframes spider-climb11 {
      0% { transform: translate(320px, 85px) rotate(0deg); opacity: 1; }
      46% { transform: translate(320px, 15px) rotate(0deg); opacity: 1; }
      47% { opacity: 0; }
      99% { opacity: 0; }
      100% { transform: translate(320px, 85px) rotate(0deg); opacity: 1; }
    }
    
    @keyframes spider-climb12 {
      0% { transform: translate(350px, 85px) rotate(0deg); opacity: 1; }
      54% { transform: translate(350px, 15px) rotate(0deg); opacity: 1; }
      55% { opacity: 0; }
      99% { opacity: 0; }
      100% { transform: translate(350px, 85px) rotate(0deg); opacity: 1; }
    }
    
    @keyframes spider-climb13 {
      0% { transform: translate(380px, 85px) rotate(0deg); opacity: 1; }
      49% { transform: translate(380px, 15px) rotate(0deg); opacity: 1; }
      50% { opacity: 0; }
      99% { opacity: 0; }
      100% { transform: translate(380px, 85px) rotate(0deg); opacity: 1; }
    }
  </style>

  <!-- 13 Teias estáticas -->
  <g class="web-threads">
    <line x1="20" y1="15" x2="20" y2="85" class="web-thread"/>
    <line x1="50" y1="15" x2="50" y2="85" class="web-thread"/>
    <line x1="80" y1="15" x2="80" y2="85" class="web-thread"/>
    <line x1="110" y1="15" x2="110" y2="85" class="web-thread"/>
    <line x1="140" y1="15" x2="140" y2="85" class="web-thread"/>
    <line x1="170" y1="15" x2="170" y2="85" class="web-thread"/>
    <line x1="200" y1="15" x2="200" y2="85" class="web-thread"/>
    <line x1="230" y1="15" x2="230" y2="85" class="web-thread"/>
    <line x1="260" y1="15" x2="260" y2="85" class="web-thread"/>
    <line x1="290" y1="15" x2="290" y2="85" class="web-thread"/>
    <line x1="320" y1="15" x2="320" y2="85" class="web-thread"/>
    <line x1="350" y1="15" x2="350" y2="85" class="web-thread"/>
    <line x1="380" y1="15" x2="380" y2="85" class="web-thread"/>
  </g>

  <!-- 13 Aranhas individuais -->
  <!-- Aranha 1 -->
  <g class="spider1">
    <ellipse cx="1" cy="1" rx="4" ry="3" fill="#000" opacity="0.3"/>
    <ellipse cx="0" cy="0" rx="3.5" ry="2.5" fill="#2a1a0f" stroke="#000" stroke-width="0.5"/>
    <ellipse cx="0" cy="0" rx="2.5" ry="1.8" fill="#3a2a1a"/>
    <circle cx="0" cy="-3" r="2" fill="#4a3520" stroke="#000" stroke-width="0.4"/>
    <circle cx="-0.8" cy="-3.5" r="0.6" fill="#000"/>
    <circle cx="0.8" cy="-3.5" r="0.6" fill="#000"/>
    <circle cx="-0.8" cy="-3.5" r="0.2" fill="#fff"/>
    <circle cx="0.8" cy="-3.5" r="0.2" fill="#fff"/>
    <g stroke="#2a1e12" stroke-width="1.2" stroke-linecap="round" fill="none">
      <path d="M-2,-2.5 L-4,-4 L-6,-5"/>
      <path d="M2,-2.5 L4,-4 L6,-5"/>
      <path d="M-2,-1.5 L-4,0 L-6,1"/>
      <path d="M2,-1.5 L4,0 L6,1"/>
      <path d="M-2,0 L-4,2 L-6,3"/>
      <path d="M2,0 L4,2 L6,3"/>
      <path d="M-2,1 L-4,3 L-5,4"/>
      <path d="M2,1 L4,3 L5,4"/>
    </g>
    <circle cx="0" cy="2.5" r="0.8" fill="#1a1a1a"/>
  </g>

  <!-- Aranha 2 -->
  <g class="spider2">
    <ellipse cx="1" cy="1" rx="4" ry="3" fill="#000" opacity="0.3"/>
    <ellipse cx="0" cy="0" rx="3.5" ry="2.5" fill="#5f5050" stroke="#000" stroke-width="0.5"/>
    <ellipse cx="0" cy="0" rx="2.5" ry="1.8" fill="#661818"/>
    <circle cx="0" cy="-3" r="2" fill="#5f5050" stroke="#000" stroke-width="0.4"/>
    <circle cx="-0.8" cy="-3.5" r="0.6" fill="#000"/>
    <circle cx="0.8" cy="-3.5" r="0.6" fill="#000"/>
    <circle cx="-0.8" cy="-3.5" r="0.2" fill="#fff"/>
    <circle cx="0.8" cy="-3.5" r="0.2" fill="#fff"/>
    <g stroke="#2a1e12" stroke-width="1.2" stroke-linecap="round" fill="none">
      <path d="M-2,-2.5 L-4,-4 L-6,-5"/>
      <path d="M2,-2.5 L4,-4 L6,-5"/>
      <path d="M-2,-1.5 L-4,0 L-6,1"/>
      <path d="M2,-1.5 L4,0 L6,1"/>
      <path d="M-2,0 L-4,2 L-6,3"/>
      <path d="M2,0 L4,2 L6,3"/>
      <path d="M-2,1 L-4,3 L-5,4"/>
      <path d="M2,1 L4,3 L5,4"/>
    </g>
    <circle cx="0" cy="2.5" r="0.8" fill="#2a1e12"/>
  </g>

  <!-- Aranha 3 -->
  <g class="spider3">
    <ellipse cx="1" cy="1" rx="4" ry="3" fill="#000" opacity="0.3"/>
    <ellipse cx="0" cy="0" rx="3.5" ry="2.5" fill="#2a1a0f" stroke="#000" stroke-width="0.5"/>
    <ellipse cx="0" cy="0" rx="2.5" ry="1.8" fill="#3a2a1a"/>
    <circle cx="0" cy="-3" r="2" fill="#4a3520" stroke="#000" stroke-width="0.4"/>
    <circle cx="-0.8" cy="-3.5" r="0.6" fill="#000"/>
    <circle cx="0.8" cy="-3.5" r="0.6" fill="#000"/>
    <circle cx="-0.8" cy="-3.5" r="0.2" fill="#fff"/>
    <circle cx="0.8" cy="-3.5" r="0.2" fill="#fff"/>
    <g stroke="#2a1e12" stroke-width="1.2" stroke-linecap="round" fill="none">
      <path d="M-2,-2.5 L-4,-4 L-6,-5"/>
      <path d="M2,-2.5 L4,-4 L6,-5"/>
      <path d="M-2,-1.5 L-4,0 L-6,1"/>
      <path d="M2,-1.5 L4,0 L6,1"/>
      <path d="M-2,0 L-4,2 L-6,3"/>
      <path d="M2,0 L4,2 L6,3"/>
      <path d="M-2,1 L-4,3 L-5,4"/>
      <path d="M2,1 L4,3 L5,4"/>
    </g>
    <circle cx="0" cy="2.5" r="0.8" fill="#1a1a1a"/>
  </g>

  <!-- Aranha 4 -->
  <g class="spider4">
    <ellipse cx="1" cy="1" rx="4" ry="3" fill="#000" opacity="0.3"/>
    <ellipse cx="0" cy="0" rx="3.5" ry="2.5" fill="#2a1a0f" stroke="#000" stroke-width="0.5"/>
    <ellipse cx="0" cy="0" rx="2.5" ry="1.8" fill="#3a2a1a"/>
    <circle cx="0" cy="-3" r="2" fill="#4a3520" stroke="#000" stroke-width="0.4"/>
    <circle cx="-0.8" cy="-3.5" r="0.6" fill="#000"/>
    <circle cx="0.8" cy="-3.5" r="0.6" fill="#000"/>
    <circle cx="-0.8" cy="-3.5" r="0.2" fill="#fff"/>
    <circle cx="0.8" cy="-3.5" r="0.2" fill="#fff"/>
    <g stroke="#2a1e12" stroke-width="1.2" stroke-linecap="round" fill="none">
      <path d="M-2,-2.5 L-4,-4 L-6,-5"/>
      <path d="M2,-2.5 L4,-4 L6,-5"/>
      <path d="M-2,-1.5 L-4,0 L-6,1"/>
      <path d="M2,-1.5 L4,0 L6,1"/>
      <path d="M-2,0 L-4,2 L-6,3"/>
      <path d="M2,0 L4,2 L6,3"/>
      <path d="M-2,1 L-4,3 L-5,4"/>
      <path d="M2,1 L4,3 L5,4"/>
    </g>
    <circle cx="0" cy="2.5" r="0.8" fill="#1a1a1a"/>
  </g>

  <!-- Aranha 5 -->
  <g class="spider5">
    <ellipse cx="1" cy="1" rx="4" ry="3" fill="#000" opacity="0.3"/>
    <ellipse cx="0" cy="0" rx="3.5" ry="2.5" fill="#2a1a0f" stroke="#000" stroke-width="0.5"/>
    <ellipse cx="0" cy="0" rx="2.5" ry="1.8" fill="#3a2a1a"/>
    <circle cx="0" cy="-3" r="2" fill="#4a3520" stroke="#000" stroke-width="0.4"/>
    <circle cx="-0.8" cy="-3.5" r="0.6" fill="#000"/>
    <circle cx="0.8" cy="-3.5" r="0.6" fill="#000"/>
    <circle cx="-0.8" cy="-3.5" r="0.2" fill="#fff"/>
    <circle cx="0.8" cy="-3.5" r="0.2" fill="#fff"/>
    <g stroke="#2a1e12" stroke-width="1.2" stroke-linecap="round" fill="none">
      <path d="M-2,-2.5 L-4,-4 L-6,-5"/>
      <path d="M2,-2.5 L4,-4 L6,-5"/>
      <path d="M-2,-1.5 L-4,0 L-6,1"/>
      <path d="M2,-1.5 L4,0 L6,1"/>
      <path d="M-2,0 L-4,2 L-6,3"/>
      <path d="M2,0 L4,2 L6,3"/>
      <path d="M-2,1 L-4,3 L-5,4"/>
      <path d="M2,1 L4,3 L5,4"/>
    </g>
    <circle cx="0" cy="2.5" r="0.8" fill="#1a1a1a"/>
  </g>

  <!-- Aranha 6 -->
  <g class="spider6">
    <ellipse cx="1" cy="1" rx="4" ry="3" fill="#000" opacity="0.3"/>
    <ellipse cx="0" cy="0" rx="3.5" ry="2.5" fill="#2a1a0f" stroke="#000" stroke-width="0.5"/>
    <ellipse cx="0" cy="0" rx="2.5" ry="1.8" fill="#5f5050"/>
    <circle cx="0" cy="-3" r="2" fill="#5f5050" stroke="#000" stroke-width="0.4"/>
    <circle cx="-0.8" cy="-3.5" r="0.6" fill="#000"/>
    <circle cx="0.8" cy="-3.5" r="0.6" fill="#000"/>
    <circle cx="-0.8" cy="-3.5" r="0.2" fill="#fff"/>
    <circle cx="0.8" cy="-3.5" r="0.2" fill="#fff"/>
    <g stroke="#2a1e12" stroke-width="1.2" stroke-linecap="round" fill="none">
      <path d="M-2,-2.5 L-4,-4 L-6,-5"/>
      <path d="M2,-2.5 L4,-4 L6,-5"/>
      <path d="M-2,-1.5 L-4,0 L-6,1"/>
      <path d="M2,-1.5 L4,0 L6,1"/>
      <path d="M-2,0 L-4,2 L-6,3"/>
      <path d="M2,0 L4,2 L6,3"/>
      <path d="M-2,1 L-4,3 L-5,4"/>
      <path d="M2,1 L4,3 L5,4"/>
    </g>
    <circle cx="0" cy="2.5" r="0.8" fill="#1a1a1a"/>
  </g>

  <!-- Aranha 7 -->
  <g class="spider7">
    <ellipse cx="1" cy="1" rx="4" ry="3" fill="#000" opacity="0.3"/>
    <ellipse cx="0" cy="0" rx="3.5" ry="2.5" fill="#2a1a0f" stroke="#000" stroke-width="0.5"/>
    <ellipse cx="0" cy="0" rx="2.5" ry="1.8" fill="#e62323"/>
    <circle cx="0" cy="-3" r="2" fill="#e62323" stroke="#000" stroke-width="0.4"/>
    <circle cx="-0.8" cy="-3.5" r="0.6" fill="#000"/>
    <circle cx="0.8" cy="-3.5" r="0.6" fill="#000"/>
    <circle cx="-0.8" cy="-3.5" r="0.2" fill="#fff"/>
    <circle cx="0.8" cy="-3.5" r="0.2" fill="#fff"/>
    <g stroke="#2a1e12" stroke-width="1.2" stroke-linecap="round" fill="none">
      <path d="M-2,-2.5 L-4,-4 L-6,-5"/>
      <path d="M2,-2.5 L4,-4 L6,-5"/>
      <path d="M-2,-1.5 L-4,0 L-6,1"/>
      <path d="M2,-1.5 L4,0 L6,1"/>
      <path d="M-2,0 L-4,2 L-6,3"/>
      <path d="M2,0 L4,2 L6,3"/>
      <path d="M-2,1 L-4,3 L-5,4"/>
      <path d="M2,1 L4,3 L5,4"/>
    </g>
    <circle cx="0" cy="2.5" r="0.8" fill="#1a1a1a"/>
  </g>

  <!-- Aranha 8 -->
  <g class="spider8">
    <ellipse cx="1" cy="1" rx="4" ry="3" fill="#000" opacity="0.3"/>
    <ellipse cx="0" cy="0" rx="3.5" ry="2.5" fill="#e62323" stroke="#000" stroke-width="0.5"/>
    <ellipse cx="0" cy="0" rx="2.5" ry="1.8" fill="#720e0e"/>
    <circle cx="0" cy="-3" r="2" fill="#4a3520" stroke="#000" stroke-width="0.4"/>
    <circle cx="-0.8" cy="-3.5" r="0.6" fill="#000"/>
    <circle cx="0.8" cy="-3.5" r="0.6" fill="#000"/>
    <circle cx="-0.8" cy="-3.5" r="0.2" fill="#fff"/>
    <circle cx="0.8" cy="-3.5" r="0.2" fill="#fff"/>
    <g stroke="#2a1e12" stroke-width="1.2" stroke-linecap="round" fill="none">
      <path d="M-2,-2.5 L-4,-4 L-6,-5"/>
      <path d="M2,-2.5 L4,-4 L6,-5"/>
      <path d="M-2,-1.5 L-4,0 L-6,1"/>
      <path d="M2,-1.5 L4,0 L6,1"/>
      <path d="M-2,0 L-4,2 L-6,3"/>
      <path d="M2,0 L4,2 L6,3"/>
      <path d="M-2,1 L-4,3 L-5,4"/>
      <path d="M2,1 L4,3 L5,4"/>
    </g>
    <circle cx="0" cy="2.5" r="0.8" fill="#1a1a1a"/>
  </g>

  <!-- Aranha 9 -->
  <g class="spider9">
    <ellipse cx="1" cy="1" rx="4" ry="3" fill="#000" opacity="0.3"/>
    <ellipse cx="0" cy="0" rx="3.5" ry="2.5" fill="#2a1a0f" stroke="#000" stroke-width="0.5"/>
    <ellipse cx="0" cy="0" rx="2.5" ry="1.8" fill="#3a2a1a"/>
    <circle cx="0" cy="-3" r="2" fill="#4a3520" stroke="#000" stroke-width="0.4"/>
    <circle cx="-0.8" cy="-3.5" r="0.6" fill="#000"/>
    <circle cx="0.8" cy="-3.5" r="0.6" fill="#000"/>
    <circle cx="-0.8" cy="-3.5" r="0.2" fill="#fff"/>
    <circle cx="0.8" cy="-3.5" r="0.2" fill="#fff"/>
    <g stroke="#2a1e12" stroke-width="1.2" stroke-linecap="round" fill="none">
      <path d="M-2,-2.5 L-4,-4 L-6,-5"/>
      <path d="M2,-2.5 L4,-4 L6,-5"/>
      <path d="M-2,-1.5 L-4,0 L-6,1"/>
      <path d="M2,-1.5 L4,0 L6,1"/>
      <path d="M-2,0 L-4,2 L-6,3"/>
      <path d="M2,0 L4,2 L6,3"/>
      <path d="M-2,1 L-4,3 L-5,4"/>
      <path d="M2,1 L4,3 L5,4"/>
    </g>
    <circle cx="0" cy="2.5" r="0.8" fill="#1a1a1a"/>
  </g>

  <!-- Aranha 10 -->
  <g class="spider10">
    <ellipse cx="1" cy="1" rx="4" ry="3" fill="#000" opacity="0.3"/>
    <ellipse cx="0" cy="0" rx="3.5" ry="2.5" fill="#2a1a0f" stroke="#000" stroke-width="0.5"/>
    <ellipse cx="0" cy="0" rx="2.5" ry="1.8" fill="#924a20"/>
    <circle cx="0" cy="-3" r="2" fill="#4a3520" stroke="#000" stroke-width="0.4"/>
    <circle cx="-0.8" cy="-3.5" r="0.6" fill="#000"/>
    <circle cx="0.8" cy="-3.5" r="0.6" fill="#000"/>
    <circle cx="-0.8" cy="-3.5" r="0.2" fill="#fff"/>
    <circle cx="0.8" cy="-3.5" r="0.2" fill="#fff"/>
    <g stroke="#2a1e12" stroke-width="1.2" stroke-linecap="round" fill="none">
      <path d="M-2,-2.5 L-4,-4 L-6,-5"/>
      <path d="M2,-2.5 L4,-4 L6,-5"/>
      <path d="M-2,-1.5 L-4,0 L-6,1"/>
      <path d="M2,-1.5 L4,0 L6,1"/>
      <path d="M-2,0 L-4,2 L-6,3"/>
      <path d="M2,0 L4,2 L6,3"/>
      <path d="M-2,1 L-4,3 L-5,4"/>
      <path d="M2,1 L4,3 L5,4"/>
    </g>
    <circle cx="0" cy="2.5" r="0.8" fill="#1a1a1a"/>
  </g>
  
  <!-- Aranha 11 -->
  <g class="spider11">
    <ellipse cx="1" cy="1" rx="4" ry="3" fill="#000" opacity="0.3"/>
    <ellipse cx="0" cy="0" rx="3.5" ry="2.5" fill="#2a1a0f" stroke="#000" stroke-width="0.5"/>
    <ellipse cx="0" cy="0" rx="2.5" ry="1.8" fill="#ff9900"/>
    <circle cx="0" cy="-3" r="2" fill="#4a3520" stroke="#000" stroke-width="0.4"/>
    <circle cx="-0.8" cy="-3.5" r="0.6" fill="#000"/>
    <circle cx="0.8" cy="-3.5" r="0.6" fill="#000"/>
    <circle cx="-0.8" cy="-3.5" r="0.2" fill="#fff"/>
    <circle cx="0.8" cy="-3.5" r="0.2" fill="#fff"/>
    <g stroke="#2a1e12" stroke-width="1.2" stroke-linecap="round" fill="none">
      <path d="M-2,-2.5 L-4,-4 L-6,-5"/>
      <path d="M2,-2.5 L4,-4 L6,-5"/>
      <path d="M-2,-1.5 L-4,0 L-6,1"/>
      <path d="M2,-1.5 L4,0 L6,1"/>
      <path d="M-2,0 L-4,2 L-6,3"/>
      <path d="M2,0 L4,2 L6,3"/>
      <path d="M-2,1 L-4,3 L-5,4"/>
      <path d="M2,1 L4,3 L5,4"/>
    </g>
    <circle cx="0" cy="2.5" r="0.8" fill="#1a1a1a"/>
  </g>

  <!-- Aranha 12 -->
  <g class="spider12">
    <ellipse cx="1" cy="1" rx="4" ry="3" fill="#000" opacity="0.3"/>
    <ellipse cx="0" cy="0" rx="3.5" ry="2.5" fill="#2a1a0f" stroke="#000" stroke-width="0.5"/>
    <ellipse cx="0" cy="0" rx="2.5" ry="1.8" fill="#3a2a1a"/>
    <circle cx="0" cy="-3" r="2" fill="#4a3520" stroke="#000" stroke-width="0.4"/>
    <circle cx="-0.8" cy="-3.5" r="0.6" fill="#000"/>
    <circle cx="0.8" cy="-3.5" r="0.6" fill="#000"/>
    <circle cx="-0.8" cy="-3.5" r="0.2" fill="#fff"/>
    <circle cx="0.8" cy="-3.5" r="0.2" fill="#fff"/>
    <g stroke="#2a1e12" stroke-width="1.2" stroke-linecap="round" fill="none">
      <path d="M-2,-2.5 L-4,-4 L-6,-5"/>
      <path d="M2,-2.5 L4,-4 L6,-5"/>
      <path d="M-2,-1.5 L-4,0 L-6,1"/>
      <path d="M2,-1.5 L4,0 L6,1"/>
      <path d="M-2,0 L-4,2 L-6,3"/>
      <path d="M2,0 L4,2 L6,3"/>
      <path d="M-2,1 L-4,3 L-5,4"/>
      <path d="M2,1 L4,3 L5,4"/>
    </g>
    <circle cx="0" cy="2.5" r="0.8" fill="#1a1a1a"/>
  </g>

  <!-- Aranha 13 -->
  <g class="spider13">
    <ellipse cx="1" cy="1" rx="4" ry="3" fill="#000" opacity="0.3"/>
    <ellipse cx="0" cy="0" rx="3.5" ry="2.5" fill="#2a1a0f" stroke="#000" stroke-width="0.5"/>
    <ellipse cx="0" cy="0" rx="2.5" ry="1.8" fill="#ff9900"/>
    <circle cx="0" cy="-3" r="2" fill="#4a3520" stroke="#000" stroke-width="0.4"/>
    <circle cx="-0.8" cy="-3.5" r="0.6" fill="#000"/>
    <circle cx="0.8" cy="-3.5" r="0.6" fill="#000"/>
    <circle cx="-0.8" cy="-3.5" r="0.2" fill="#fff"/>
    <circle cx="0.8" cy="-3.5" r="0.2" fill="#fff"/>
    <g stroke="#2a1e12" stroke-width="1.2" stroke-linecap="round" fill="none">
      <path d="M-2,-2.5 L-4,-4 L-6,-5"/>
      <path d="M2,-2.5 L4,-4 L6,-5"/>
      <path d="M-2,-1.5 L-4,0 L-6,1"/>
      <path d="M2,-1.5 L4,0 L6,1"/>
      <path d="M-2,0 L-4,2 L-6,3"/>
      <path d="M2,0 L4,2 L6,3"/>
      <path d="M-2,1 L-4,3 L-5,4"/>
      <path d="M2,1 L4,3 L5,4"/>
    </g>
    <circle cx="0" cy="2.5" r="0.8" fill="#1a1a1a"/>
  </g>

</svg>
