<svg width="330" height="32" viewBox="0 0 330 32" xmlns="http://www.w3.org/2000/svg">
  <style>
    .bit {
      fill: #4CAF50;
      opacity: 0;
      animation: fall 1s infinite;
    }
    .bit:nth-child(1) { animation-delay: 0s; }
    .bit:nth-child(2) { animation-delay: 0.1s; }
    .bit:nth-child(3) { animation-delay: 0.2s; }
    .bit:nth-child(4) { animation-delay: 0.3s; }
    .bit:nth-child(5) { animation-delay: 0.4s; }
    .bit:nth-child(6) { animation-delay: 0.5s; }
    .bit:nth-child(7) { animation-delay: 0.6s; }
    .bit:nth-child(8) { animation-delay: 0.7s; }
    .bit:nth-child(9) { animation-delay: 0.8s; }
    .bit:nth-child(10) { animation-delay: 0.9s; }
    .bit:nth-child(11) { animation-delay: 1s; }
    .bit:nth-child(12) { animation-delay: 1.1s; }
    .bit:nth-child(13) { animation-delay: 1.2s; }
    .bit:nth-child(14) { animation-delay: 1.3s; }
    .bit:nth-child(15) { animation-delay: 1.4s; }
    .bit:nth-child(16) { animation-delay: 1.5s; }
    
    @keyframes fall {
      0% { transform: translateY(-10px); opacity: 1; }
      100% { transform: translateY(32px); opacity: 0; }
    }
  </style>
  <rect width="330" height="32" fill="black" />
  <rect class="bit" x="10" y="0" width="4" height="4" />
  <rect class="bit" x="20" y="0" width="4" height="4" />
  <rect class="bit" x="30" y="0" width="4" height="4" />
  <rect class="bit" x="40" y="0" width="4" height="4" />
  <rect class="bit" x="50" y="0" width="4" height="4" />
  <rect class="bit" x="60" y="0" width="4" height="4" />
  <rect class="bit" x="70" y="0" width="4" height="4" />
  <rect class="bit" x="80" y="0" width="4" height="4" />
  <rect class="bit" x="90" y="0" width="4" height="4" />
  <rect class="bit" x="100" y="0" width="4" height="4" />
  <rect class="bit" x="110" y="0" width="4" height="4" />
  <rect class="bit" x="120" y="0" width="4" height="4" />
  <rect class="bit" x="130" y="0" width="4" height="4" />
  <rect class="bit" x="140" y="0" width="4" height="4" />
  <rect class="bit" x="150" y="0" width="4" height="4" />
  <rect class="bit" x="160" y="0" width="4" height="4" />
  <rect class="bit" x="170" y="0" width="4" height="4" />
  <rect class="bit" x="180" y="0" width="4" height="4" />
  <rect class="bit" x="190" y="0" width="4" height="4" />
  <rect class="bit" x="200" y="0" width="4" height="4" />
  <rect class="bit" x="210" y="0" width="4" height="4" />
  <rect class="bit" x="220" y="0" width="4" height="4" />
  <rect class="bit" x="230" y="0" width="4" height="4" />
  <rect class="bit" x="240" y="0" width="4" height="4" />
  <rect class="bit" x="250" y="0" width="4" height="4" />
  <rect class="bit" x="260" y="0" width="4" height="4" />
  <rect class="bit" x="270" y="0" width="4" height="4" />
  <rect class="bit" x="280" y="0" width="4" height="4" />
  <rect class="bit" x="290" y="0" width="4" height="4" />
  <rect class="bit" x="300" y="0" width="4" height="4" />
  <rect class="bit" x="310" y="0" width="4" height="4" />
  <rect class="bit" x="320" y="0" width="4" height="4" />
</svg>
