<svg width="500" height="500" viewBox="0 0 500 500" xmlns="http://www.w3.org/2000/svg">
  <rect width="100%" height="100%" fill="black"/>

  <!-- Teia -->
  <g stroke="white" stroke-width="1">
    <line x1="250" y1="250" x2="250" y2="50"/>
    <line x1="250" y1="250" x2="450" y2="250"/>
    <line x1="250" y1="250" x2="250" y2="450"/>
    <line x1="250" y1="250" x2="50" y2="250"/>
    <line x1="250" y1="250" x2="400" y2="100"/>
    <line x1="250" y1="250" x2="100" y2="400"/>
    <line x1="250" y1="250" x2="400" y2="400"/>
    <line x1="250" y1="250" x2="100" y2="100"/>

    <circle cx="250" cy="250" r="50" fill="none"/>
    <circle cx="250" cy="250" r="100" fill="none"/>
    <circle cx="250" cy="250" r="150" fill="none"/>
    <circle cx="250" cy="250" r="200" fill="none"/>
  </g>

  <!-- Aranha -->
  <g id="spider" transform="translate(250, 250)">
    <circle cx="0" cy="0" r="8" fill="black"/>
    <circle cx="0" cy="-10" r="5" fill="black"/>

    <g stroke="black" stroke-width="2">
      <line x1="-8" y1="0" x2="-15" y2="-10"/>
      <line x1="-8" y1="0" x2="-15" y2="10"/>
      <line x1="8" y1="0" x2="15" y2="-10"/>
      <line x1="8" y1="0" x2="15" y2="10"/>
      <line x1="-5" y1="-10" x2="-10" y2="-20"/>
      <line x1="5" y1="-10" x2="10" y2="-20"/>
    </g>
  </g>

  <script><![CDATA[
    const spider = document.getElementById('spider');

    // Definir pontos da teia (pontos de interseção das linhas)
    const points = [
      [250, 50], [400, 100], [450, 250], [400, 400],
      [250, 450], [100, 400], [50, 250], [100, 100],
      [250, 250]
    ];

    let current = 8; // Começa no centro

    function moveSpider() {
      let next;
      do {
        next = Math.floor(Math.random() * points.length);
      } while (next === current);

      const [x, y] = points[next];
      spider.setAttribute('transform', 'translate(' + x + ',' + y + ')');
      current = next;
    }

    setInterval(moveSpider, 2000); // Move a cada 2 segundos
  ]]></script>
</svg>
