<svg xmlns="http://www.w3.org/2000/svg" version="1.1" xmlns:xlink="http://www.w3.org/1999/xlink" xmlns:svgjs="http://svgjs.dev/svgjs" width="100%" height="100%" viewBox="0 0 1000 600"><rect width="1000" height="600" x="0" y="0" fill="#53562"/><g><rect width="333.3333333333333" height="333.3333333333333" rx="13.333333333333334" ry="13.333333333333334" y="196.55768043544725" fill="#ffffff" transform="matrix(0.7170085459861725,0,0,0.7170085459861725,0,39.565044174658595)" x="174.33547973632812"/><path d="M205.7051056677106 396.0359069309358L205.7051056677106 330.4127845093762Q205.7051056677106 318.71044443420095 211.7663177066475 309.1685363729042Q217.82752974558446 299.5966223114147 227.96955781073632 293.92548827498365Q238.08157987569544 288.22434823835977 250.44405195511135 288.22434823835977L250.44405195511135 288.22434823835977L285.5810781808299 288.22434823835977Q297.913544260053 288.22434823835977 308.08557832539765 293.92548827498365Q318.2576123907423 299.5966223114147 324.28881842948647 309.1685363729042Q330.29001846803783 318.71044443420095 330.29001846803783 330.4127845093762L330.29001846803783 330.4127845093762L330.29001846803783 396.0359069309358Q330.29001846803783 407.6182230053401 324.28881842948647 417.2201430670223Q318.2576123907423 426.82206312870466 308.08557832539765 432.5232031653284Q297.913544260053 438.2243432019523 285.5810781808299 438.2243432019523L285.5810781808299 438.2243432019523L250.44405195511135 438.2243432019523Q238.08157987569544 438.2243432019523 227.96955781073632 432.5232031653284Q217.82752974558446 426.82206312870466 211.7663177066475 417.2201430670223Q205.7051056677106 407.6182230053401 205.7051056677106 396.0359069309358L205.7051056677106 396.0359069309358ZM227.96955781073632 330.3227665087979L227.96955781073632 396.12592493151413Q227.96955781073632 404.3475689843296 234.57087785314286 410.22874502211Q241.14219189535666 416.0799150596976 250.44405195511135 416.0799150596976L250.44405195511135 416.0799150596976L285.5810781808299 416.0799150596976Q294.94295024097005 416.0799150596976 301.4842582829911 410.22874502211Q308.02556632501216 404.3475689843296 308.02556632501216 396.12592493151413L308.02556632501216 396.12592493151413L308.02556632501216 330.3227665087979Q308.02556632501216 322.07111645578976 301.4842582829911 316.21994641820214Q294.94295024097005 310.36877638061446 285.5810781808299 310.36877638061446L285.5810781808299 310.36877638061446L250.44405195511135 310.36877638061446Q241.14219189535666 310.36877638061446 234.57087785314286 316.21994641820214Q227.96955781073632 322.07111645578976 227.96955781073632 330.3227665087979L227.96955781073632 330.3227665087979ZM359.8459286579035 438.2243432019523L359.8459286579035 288.22434823835977L388.7417068435286 288.22434823835977L454.034763262968 406.0579109953167L454.034763262968 288.22434823835977L476.29921540599366 288.22434823835977L476.29921540599366 438.2243432019523L447.3734312201759 438.2243432019523L382.08037480073654 321.98109845521145L382.08037480073654 438.2243432019523L359.8459286579035 438.2243432019523Z " fill="#53562" transform="matrix(0.7170085459861725,0,0,0.7170085459861725,0,39.565044174658595)"/><path d="M591.0021488960317 396.2459489322852L591.0021488960317 330.4127845093762Q591.0021488960317 318.71044443420095 596.7332949328483 309.1685363729042Q602.4944469698576 299.5966223114147 612.1563790319253 293.92548827498365Q621.7883050938004 288.22434823835977 633.5206511691683 288.22434823835977L633.5206511691683 288.22434823835977L662.6264713561427 288.22434823835977Q674.9589374353659 288.22434823835977 685.1609775009033 293.92548827498365Q695.3330115662479 299.5966223114147 701.3342116047993 309.1685363729042Q707.3654176435435 318.71044443420095 707.3654176435435 330.4127845093762L707.3654176435435 330.4127845093762L707.3654176435435 396.2459489322852Q707.3654176435435 407.8282650066894 701.3342116047993 417.40017906817894Q695.3330115662479 426.9420871294756 685.2509955014816 432.58321516571397Q675.1689794367152 438.2243432019523 662.8365133574921 438.2243432019523L662.8365133574921 438.2243432019523L635.7410951834324 438.2243432019523Q623.3786231040165 438.2243432019523 613.2666010390574 432.58321516571397Q603.1245729739055 426.9420871294756 597.0633609349686 417.40017906817894Q591.0021488960317 407.8282650066894 591.0021488960317 396.2459489322852L591.0021488960317 396.2459489322852ZM613.2666010390574 330.4127845093762L613.2666010390574 396.2459489322852Q613.2666010390574 404.3475689843296 619.8379150812711 410.16873302172445Q626.4392351236777 415.95989105892653 635.7410951834324 415.95989105892653L635.7410951834324 415.95989105892653L662.8365133574921 415.95989105892653Q672.108367417054 415.95989105892653 678.6496754590751 410.16873302172445Q685.1909835010961 404.3475689843296 685.1909835010961 396.2459489322852L685.1909835010961 396.2459489322852L685.1909835010961 330.4127845093762Q685.1909835010961 322.07111645578976 678.6196694588823 316.21994641820214Q672.0183494164758 310.36877638061446 662.6264713561427 310.36877638061446L662.6264713561427 310.36877638061446L633.5206511691683 310.36877638061446Q625.178983115582 310.36877638061446 619.2077890772233 316.21994641820214Q613.2666010390574 322.07111645578976 613.2666010390574 330.4127845093762L613.2666010390574 330.4127845093762ZM732.6604758060378 396.2459489322852L732.6604758060378 330.4127845093762Q732.6604758060378 318.71044443420095 738.4216278430471 309.1685363729042Q744.1827798800564 299.5966223114147 753.8147059419314 293.92548827498365Q763.4766380039991 288.22434823835977 775.1789780791744 288.22434823835977L775.1789780791744 288.22434823835977L804.2847982661488 288.22434823835977Q816.6472703455647 288.22434823835977 826.8193044109094 293.92548827498365Q836.991338476254 299.5966223114147 843.0225445149981 309.1685363729042Q849.0237445535495 318.71044443420095 849.0237445535495 330.4127845093762L849.0237445535495 330.4127845093762L849.0237445535495 396.2459489322852Q849.0237445535495 407.8282650066894 843.0225445149981 417.40017906817894Q836.991338476254 426.9420871294756 826.9393284116803 432.58321516571397Q816.857312346914 438.2243432019523 804.5248462676908 438.2243432019523L804.5248462676908 438.2243432019523L777.3994220934385 438.2243432019523Q765.0669560142153 438.2243432019523 754.9249279490634 432.58321516571397Q744.8129058841043 426.9420871294756 738.7516938451674 417.40017906817894Q732.6604758060378 407.8282650066894 732.6604758060378 396.2459489322852L732.6604758060378 396.2459489322852ZM754.9249279490634 330.4127845093762L754.9249279490634 396.2459489322852Q754.9249279490634 404.3475689843296 761.52624799147 410.16873302172445Q768.1275680338765 415.95989105892653 777.3994220934385 415.95989105892653L777.3994220934385 415.95989105892653L804.5248462676908 415.95989105892653Q813.7967003272527 415.95989105892653 820.3380083692738 410.16873302172445Q826.8793164112949 404.3475689843296 826.8793164112949 396.2459489322852L826.8793164112949 396.2459489322852L826.8793164112949 330.4127845093762Q826.8793164112949 322.07111645578976 820.2779963688882 316.21994641820214Q813.6766763264818 310.36877638061446 804.2847982661488 310.36877638061446L804.2847982661488 310.36877638061446L775.1789780791744 310.36877638061446Q766.837310025588 310.36877638061446 760.896121987422 316.21994641820214Q754.9249279490634 322.07111645578976 754.9249279490634 330.4127845093762L754.9249279490634 330.4127845093762ZM873.29859870949 398.9764949498261L873.29859870949 368.40038075340664Q873.29859870949 357.5382086836286 878.609660743608 348.56641462599424Q883.9507287779188 339.59462056835986 892.9225228355531 334.2535525340491Q901.8643108929947 328.9424904999311 912.7564889629655 328.9424904999311L912.7564889629655 328.9424904999311L938.8016971302786 328.9424904999311L938.8016971302786 351.2069426429568L912.7564889629655 351.2069426429568Q905.6750729174748 351.2069426429568 900.6040588848989 356.3079626757255Q895.533044852323 361.43898870868696 895.533044852323 368.6104227547559L895.533044852323 368.6104227547559L895.533044852323 398.7664529484768Q895.533044852323 405.84786899396744 900.6040588848989 410.8888770263506Q905.6750729174748 415.95989105892653 912.7564889629655 415.95989105892653L912.7564889629655 415.95989105892653L951.4642292116221 415.95989105892653L951.4642292116221 288.22434823835977L973.7286813546478 288.22434823835977L973.7286813546478 415.95989105892653Q973.7286813546478 425.1417271179102 967.1873733126268 431.6830351599313Q960.6460652706057 438.2243432019523 951.4642292116221 438.2243432019523L951.4642292116221 438.2243432019523L912.7564889629655 438.2243432019523Q901.8643108929947 438.2243432019523 892.9225228355531 432.88327516764156Q883.9507287779188 427.5722131335236 878.609660743608 418.66043107627473Q873.29859870949 409.7486490190259 873.29859870949 398.9764949498261L873.29859870949 398.9764949498261ZM999.0237395171421 407.4081810039908L999.0237395171421 351.5070026448844Q999.0237395171421 342.11512458455144 1005.8951135612834 335.54381054233767Q1012.736481605232 328.9424904999311 1022.3384016669143 328.9424904999311L1022.3384016669143 328.9424904999311L1067.917515959712 328.9424904999311Q1076.6792680159974 328.9424904999311 1083.7906900616806 333.2033425273026Q1090.902112107364 337.49420055486684 1095.1929701349284 344.69564060112856Q1099.4538221622997 351.92708664758305 1099.4538221622997 360.68883870386804L1099.4538221622997 360.68883870386804L1099.4538221622997 363.74945072352926Q1099.4538221622997 372.3911787790433 1095.1929701349284 379.53260682491947Q1090.902112107364 386.6440288706029 1083.7906900616806 390.90488089797446Q1076.6792680159974 395.1957389255387 1067.917515959712 395.1957389255387L1067.917515959712 395.1957389255387L1033.9507237415112 395.1957389255387L1033.9507237415112 373.02130478309124L1068.1275579610615 373.02130478309124Q1071.9383199855417 373.02130478309124 1074.608854002697 370.2907587655504Q1077.3093940200451 367.5602127480094 1077.3093940200451 363.6294267227583L1077.3093940200451 363.6294267227583L1077.3093940200451 360.68883870386804Q1077.3093940200451 356.6680346780386 1074.608854002697 353.93748866049776Q1071.9383199855417 351.2069426429568 1068.1275579610615 351.2069426429568L1068.1275579610615 351.2069426429568L1021.2881916601677 351.2069426429568L1021.2881916601677 407.3181630034125Q1021.2881916601677 410.8888770263506 1023.7186776757811 413.43938704273495Q1026.1491636913943 415.95989105892653 1029.6298597137543 415.95989105892653L1029.6298597137543 415.95989105892653L1091.7722861129541 415.95989105892653L1091.7722861129541 438.2243432019523L1029.6298597137543 438.2243432019523Q1021.1981736595894 438.2243432019523 1014.2367816148699 434.05350917515904Q1007.2753895701502 429.8826751483659 1003.1345615435498 422.86127110326066Q999.0237395171421 415.86987305834833 999.0237395171421 407.4081810039908L999.0237395171421 407.4081810039908ZM1115.2969902640755 328.9424904999311L1138.7016704144262 328.9424904999311L1167.9275146021714 406.0579109953167L1196.9433167885675 328.9424904999311L1220.3479969389182 328.9424904999311L1178.6696626711785 438.2243432019523L1156.8553005310441 438.2243432019523L1115.2969902640755 328.9424904999311Z " fill="#ffff" transform="matrix(0.7170085459861725,0,0,0.7170085459861725,0,39.565044174658595)"/></g></svg>